PathFileType	4	(X/Y/Z)	Kaydara	
DataRate	CameraRate	NumFrames	NumMarkers	Units	OrigDataRate	OrigDataStartFrame	OrigNumFrames	
60.00	60.00	4	74	mm	60.00	221	140	
Frame#	Time	Z_lasi			Z_rasi			Z_rpsi			Z_lpsi			Z_fneck			Z_fhead			Z_rhead			Z_lhead			Z_rshld			Z_relbtop			Z_relblow			Z_rwrext			Z_rwrtop			Z_rwrlow			Z_lshld			Z_lelbext			Z_lelblow			Z_lelbtop			Z_lwrext			Z_lwrtop			Z_lwrlow			Z_rtopleg			Z_ltopleg			Z_rkneefr			Z_rkneebk			Z_rkneeis			Z_lkneefr			Z_lknssbk			Z_lkneeis			Z_rankfr			Z_rankis			Z_rankbk			Z_lankfr			Z_lankbk			Z_lankis			N_lasi			N_rasi			N_rpsi			N_lpsi			N_fneck			N_bneck			N_fhead			N_rhead			N_lhead			N_rshld			N_relbtop			N_relbext			N_relblow			N_rwrext			N_rwrtop			N_rwrlow			N_lshld			N_lelbext			N_lelblow			N_lelbtop			N_lwrext			N_lwrtop			N_lwrlow			N_rtopleg			N_rkneefr			N_rkneebk			N_rkneeis			N_lkneefr			N_lknssbk			N_lkneeis			N_rankfr			N_rankis			N_rankbk			N_lankfr			N_lankbk			N_lankis			Z_relbext			Z_bneck			N_ltopleg			
		X1	Y1	Z1	X2	Y2	Z2	X3	Y3	Z3	X4	Y4	Z4	X5	Y5	Z5	X6	Y6	Z6	X7	Y7	Z7	X8	Y8	Z8	X9	Y9	Z9	X10	Y10	Z10	X11	Y11	Z11	X12	Y12	Z12	X13	Y13	Z13	X14	Y14	Z14	X15	Y15	Z15	X16	Y16	Z16	X17	Y17	Z17	X18	Y18	Z18	X19	Y19	Z19	X20	Y20	Z20	X21	Y21	Z21	X22	Y22	Z22	X23	Y23	Z23	X24	Y24	Z24	X25	Y25	Z25	X26	Y26	Z26	X27	Y27	Z27	X28	Y28	Z28	X29	Y29	Z29	X30	Y30	Z30	X31	Y31	Z31	X32	Y32	Z32	X33	Y33	Z33	X34	Y34	Z34	X35	Y35	Z35	X36	Y36	Z36	X37	Y37	Z37	X38	Y38	Z38	X39	Y39	Z39	X40	Y40	Z40	X41	Y41	Z41	X42	Y42	Z42	X43	Y43	Z43	X44	Y44	Z44	X45	Y45	Z45	X46	Y46	Z46	X47	Y47	Z47	X48	Y48	Z48	X49	Y49	Z49	X50	Y50	Z50	X51	Y51	Z51	X52	Y52	Z52	X53	Y53	Z53	X54	Y54	Z54	X55	Y55	Z55	X56	Y56	Z56	X57	Y57	Z57	X58	Y58	Z58	X59	Y59	Z59	X60	Y60	Z60	X61	Y61	Z61	X62	Y62	Z62	X63	Y63	Z63	X64	Y64	Z64	X65	Y65	Z65	X66	Y66	Z66	X67	Y67	Z67	X68	Y68	Z68	X69	Y69	Z69	X70	Y70	Z70	X71	Y71	Z71	X72	Y72	Z72	X73	Y73	Z73	X74	Y74	Z74	

1	3.667	-1642.40997	1000.73532	1078.98819	-1488.48190	1004.21570	912.31720	-1324.95331	1059.01840	1089.96399	-1509.59991	1062.49168	1238.42606	-1534.31671	1468.35541	939.10095	-1524.45938	1686.81808	820.02327	-1443.59222	1680.12238	978.15155	-1599.68994	1694.11957	973.08640	-1332.03278	1426.66931	895.43419	-1235.20081	1145.38269	837.28714	-1293.58582	1162.56165	796.70029	-1276.62979	941.33408	672.09328	-1281.11816	975.00732	633.97697	-1326.11145	983.95462	634.48341	-1685.07217	1473.36563	1147.46437	-1760.22873	1128.81248	1204.73854	-1755.37476	1195.98656	1147.41478	-1781.57730	1217.48291	1217.80518	-1947.52655	1065.54199	1107.66159	-1965.75638	1109.48036	1085.00443	-1936.77277	1107.30629	1045.19577	-1320.32166	889.49715	927.02522	-1635.55511	882.09091	1202.61414	-1412.27249	470.31208	810.76096	-1326.04675	485.73399	890.85579	-1430.82733	445.29850	921.74332	-1579.71832	420.43056	1113.24059	-1572.51129	462.18498	1213.05626	-1476.17722	448.15323	1139.48349	-1371.99615	173.15739	762.11174	-1388.03558	155.69246	831.87119	-1315.83923	162.71019	797.85538	-1518.98880	121.82769	1229.62418	-1425.17685	140.62779	1244.33853	-1465.36224	126.83659	1183.70811	-1345.27496	996.57936	-394.56554	-1574.24026	1012.25273	-451.88366	-1498.24463	1083.56995	-629.05449	-1310.86746	1059.76883	-584.16321	-1412.98370	1466.48697	-376.80794	-1407.38434	1526.82251	-484.88190	-1439.88007	1631.69739	-280.04810	-1483.21259	1644.39880	-466.42574	-1354.83719	1638.19260	-446.17432	-1639.73099	1417.33490	-497.24144	-1723.78067	1145.33669	-529.10179	-1678.64410	1109.87877	-572.17964	-1664.25293	1146.74805	-482.04109	-1678.58917	929.71825	-370.21961	-1692.18353	953.86002	-332.44740	-1651.10443	976.95427	-326.33419	-1204.83093	1410.95367	-446.96793	-1216.33080	1114.87442	-568.98418	-1141.62247	1127.35291	-507.50763	-1147.94296	1132.62207	-588.48866	-1081.23375	920.16151	-597.64687	-1087.27150	908.68965	-556.87889	-1131.85226	899.58603	-562.70821	-1607.23572	904.80446	-562.22706	-1599.87518	428.49579	-468.43559	-1627.82150	460.15274	-549.17229	-1517.53738	438.47343	-521.76811	-1326.93192	428.74039	-419.03835	-1248.90518	454.46896	-452.44106	-1344.85016	442.67563	-526.16882	-1605.93124	172.81603	-518.55610	-1542.29233	166.22744	-570.35961	-1609.18152	165.38967	-597.18300	-1231.10313	176.29919	-465.92674	-1254.25461	169.66570	-528.39104	-1307.52014	174.60079	-476.38329	-1280.68542	1113.37097	872.18330	-1595.43060	1549.45480	1043.31284	-1270.08301	936.72798	-468.71899 
2	3.683	-1642.88452	1000.04539	1074.16039	-1489.37729	1002.32567	906.89972	-1324.89990	1057.78816	1083.89435	-1509.25201	1062.53830	1232.65450	-1532.46399	1467.20688	930.76607	-1521.39084	1684.70795	810.98709	-1440.59631	1678.85178	967.61368	-1596.35666	1693.32764	964.07364	-1330.70465	1423.84979	887.12387	-1236.65649	1143.16139	825.51849	-1294.93027	1161.63132	785.40855	-1280.89188	941.89613	657.46956	-1284.61044	976.37161	619.82677	-1329.27933	986.21109	620.17891	-1682.92969	1473.55255	1139.56390	-1755.35965	1127.91069	1198.73024	-1750.26474	1194.81483	1141.63521	-1776.94916	1216.85112	1211.56799	-1942.32468	1066.46667	1099.90929	-1958.98727	1110.24406	1076.00975	-1929.11530	1107.03316	1037.06520	-1320.89874	887.40097	921.86867	-1635.41977	881.86256	1198.10837	-1411.79825	467.97474	807.43958	-1326.43738	483.82275	888.30444	-1431.60690	443.76904	918.29857	-1580.06699	419.70932	1110.96413	-1572.63351	462.02435	1210.49553	-1476.67053	447.81559	1136.80992	-1370.36285	170.48834	761.53503	-1387.10449	153.46290	831.28555	-1314.66141	160.33777	798.04146	-1518.98224	121.91515	1229.02527	-1425.22079	140.87427	1243.20259	-1465.19226	126.82443	1182.67662	-1349.75815	997.80472	-398.03230	-1580.63217	1011.97342	-448.45314	-1509.21875	1084.07501	-627.43538	-1320.60013	1059.79210	-588.76755	-1419.31763	1466.66306	-377.32281	-1415.61264	1527.47665	-485.55691	-1445.39307	1631.33713	-279.82458	-1490.00977	1644.85703	-466.00075	-1361.73080	1638.56003	-446.54873	-1648.77274	1417.12769	-489.06055	-1732.62756	1143.02872	-514.98760	-1689.02603	1107.88033	-559.57378	-1671.56921	1145.00931	-470.45368	-1680.83755	927.61681	-358.39012	-1694.59808	951.01662	-320.20107	-1653.80981	974.93416	-314.36983	-1212.28630	1412.26364	-453.96145	-1223.51318	1116.91803	-576.63254	-1146.87080	1130.60379	-517.63836	-1156.03096	1135.12550	-598.60432	-1088.15178	922.84645	-608.39642	-1091.68182	912.17331	-567.34638	-1136.36971	902.43736	-569.98989	-1615.65979	905.25604	-558.17966	-1601.77094	428.40584	-468.73997	-1632.39395	460.19051	-548.41427	-1520.87311	439.54197	-523.60004	-1331.09085	429.23088	-412.93884	-1254.07036	454.80968	-447.48985	-1351.03210	442.38747	-519.37160	-1607.21588	172.81094	-518.96034	-1544.08707	166.56776	-571.80679	-1611.25412	165.44498	-597.87334	-1233.49434	177.17302	-464.59137	-1257.09480	171.05534	-526.83804	-1310.09476	174.63654	-474.42165	-1283.36227	1111.65230	860.64346	-1593.57773	1548.30612	1034.97795	-1273.98392	936.84441	-472.48051 
3	3.700	-1642.81464	999.36287	1068.83904	-1490.30731	999.79691	900.79910	-1324.87152	1056.43860	1076.79977	-1508.73764	1062.33330	1226.55190	-1530.45395	1465.96786	922.01302	-1518.31253	1682.76855	801.43639	-1436.78360	1676.87790	959.44237	-1592.80685	1692.63535	954.65752	-1329.12659	1421.14548	878.34435	-1238.70163	1140.23811	813.62259	-1296.29089	1160.49896	773.61153	-1285.83466	942.75368	642.35931	-1288.38623	977.77306	605.60326	-1332.62741	988.62816	605.36888	-1680.58197	1473.70178	1131.40511	-1750.29587	1127.01591	1192.37473	-1745.13428	1193.80806	1135.38200	-1771.95206	1216.06873	1205.11002	-1936.45676	1065.78430	1093.05359	-1952.07489	1109.10637	1067.92358	-1921.36841	1104.91989	1029.65034	-1321.31805	885.22804	916.39572	-1635.42282	881.68068	1193.17810	-1411.69434	465.57331	804.24583	-1327.47238	481.77849	886.13693	-1432.66159	442.08729	915.19470	-1580.40497	419.03446	1108.54698	-1572.78000	462.02358	1207.79823	-1476.89133	447.33173	1133.62083	-1368.98071	167.77233	760.82794	-1386.48743	151.19045	830.54863	-1313.73749	158.19016	798.56918	-1518.95691	122.01697	1228.45551	-1424.96002	141.05008	1242.39410	-1465.35019	126.82353	1181.90895	-1353.60519	998.61420	-401.74747	-1586.19873	1012.15340	-444.68891	-1519.96490	1085.06050	-625.52876	-1330.37964	1059.85161	-593.43330	-1425.05280	1466.72363	-378.24100	-1423.74725	1527.73819	-486.34800	-1450.68466	1630.87234	-279.97911	-1497.01508	1645.02380	-465.42534	-1368.42117	1638.67706	-447.34367	-1657.15683	1416.90414	-480.33806	-1740.97580	1140.91469	-499.92489	-1699.10629	1105.77576	-545.90118	-1678.56705	1143.41087	-457.97695	-1682.89337	926.26839	-344.87545	-1696.59485	949.10492	-306.35775	-1656.26450	973.99094	-300.94093	-1219.55330	1413.70972	-461.29192	-1229.77051	1118.12332	-581.01761	-1152.54433	1133.66135	-527.41940	-1164.83452	1137.08923	-608.01968	-1096.00700	924.78058	-616.89724	-1097.29713	915.03059	-575.67982	-1141.84380	904.84833	-575.04417	-1623.68866	905.56473	-554.36970	-1603.97598	428.19889	-469.59251	-1635.92361	459.89033	-549.00780	-1524.28543	440.20092	-526.26736	-1335.32745	430.11383	-405.05985	-1259.08081	455.42606	-441.04641	-1357.73468	442.41966	-511.04961	-1608.32153	172.64700	-519.65931	-1545.75790	166.76577	-573.20068	-1613.19641	164.86814	-598.43277	-1236.36040	178.19578	-462.67036	-1260.61501	173.02782	-524.70940	-1313.07419	174.95983	-471.63433	-1286.34186	1109.48189	848.78746	-1591.56769	1547.06711	1026.22490	-1279.75006	936.86775	-478.04924 
4	3.717	-1642.77191	998.85757	1063.08670	-1490.72586	998.46291	894.17442	-1324.53033	1055.11208	1069.66881	-1507.81555	1062.30118	1220.53467	-1528.29361	1464.71329	912.87827	-1515.10208	1680.84595	791.49612	-1433.19687	1675.20493	949.44351	-1589.06006	1691.83395	944.91798	-1327.74673	1418.48663	868.85147	-1240.68115	1137.99179	801.74622	-1297.59338	1159.76440	761.25801	-1290.77545	943.83636	626.90197	-1292.03690	979.56787	590.12920	-1336.15860	991.31935	590.15240	-1677.85126	1473.81592	1122.84042	-1745.27725	1126.07178	1185.93773	-1740.03281	1192.45407	1129.08875	-1767.01630	1215.53406	1198.52966	-1929.99146	1063.46970	1087.08435	-1944.88724	1106.21986	1060.73715	-1913.74420	1101.15173	1023.25462	-1321.87119	883.14850	910.18188	-1634.91104	881.52847	1187.78297	-1411.57974	463.14217	801.07697	-1328.20831	479.98459	883.59047	-1433.26324	440.36018	911.92154	-1580.47882	418.48335	1105.97900	-1572.52121	462.00859	1204.87045	-1476.96213	446.83018	1130.95177	-1367.99225	165.51615	758.98964	-1385.90942	149.06459	828.74359	-1312.93488	156.14264	797.26288	-1518.88397	122.13000	1227.75673	-1424.87122	141.30781	1241.60080	-1465.25360	126.62521	1180.91492	-1356.93405	998.95203	-405.78590	-1590.64850	1012.18109	-440.56732	-1530.57312	1085.57556	-623.73512	-1340.11459	1059.98550	-598.06267	-1430.81070	1466.60126	-379.17786	-1431.67999	1527.64679	-487.08187	-1455.97046	1630.57602	-280.15339	-1503.49487	1645.13565	-465.49904	-1375.06165	1638.56567	-448.13522	-1664.84039	1416.25351	-470.98351	-1748.77167	1138.87894	-483.85658	-1708.66394	1103.55911	-531.22643	-1685.24597	1142.17445	-443.71037	-1684.69864	925.41817	-329.47018	-1697.80457	948.21533	-291.03247	-1657.76352	973.74489	-286.41611	-1227.03384	1415.25742	-468.44978	-1238.24265	1119.17740	-586.65569	-1158.75687	1136.43570	-536.55273	-1174.53819	1138.13614	-616.58386	-1104.63417	925.75790	-623.35381	-1103.78807	917.45926	-581.88179	-1148.12889	906.85081	-578.26546	-1631.68228	905.87692	-550.24025	-1606.14868	427.86221	-471.56033	-1639.37531	459.17881	-550.54401	-1527.13287	440.36007	-528.89862	-1339.13116	431.29700	-395.78182	-1263.68423	456.23695	-433.89130	-1364.28726	442.90779	-501.27762	-1609.05151	172.26751	-520.63396	-1546.98227	166.68493	-574.55566	-1614.42398	164.29615	-599.33796	-1239.94286	179.65233	-460.38601	-1265.11398	175.43224	-522.05544	-1316.74835	175.73229	-468.19454	-1289.25980	1107.84874	836.66298	-1589.40735	1545.81268	1017.09023	-1285.61813	936.62712	-483.09345 
